<?xml version="1.0" standalone="no"?><!DOCTYPE svg PUBLIC "-//W3C//DTD SVG 1.1//EN" "http://www.w3.org/Graphics/SVG/1.1/DTD/svg11.dtd"><svg t="1586999613504" class="icon" viewBox="0 0 1024 1024" version="1.1" xmlns="http://www.w3.org/2000/svg" p-id="3284" xmlns:xlink="http://www.w3.org/1999/xlink" width="24" height="24"><defs><style type="text/css"></style></defs><path d="M354.459548 1024L0.000152 669.540604 669.540755 0 1024.000152 354.459396z m275.703019-905.837585l78.756377 78.756377-39.378189 39.378189-78.756377-78.756377-39.378189 39.378188 78.756378 78.784227-39.378189 39.378189-78.784226-78.784227 18.268806-18.268806-215.187599 215.187599 78.756378 78.784226-39.378189 39.378189L275.70317 472.593962 207.752123 540.54501l28.54501-28.54501 118.162415 118.162415-39.378189 39.378189-118.162415-118.162415-53.60892 53.636769 14.25858-14.258581 78.728529 78.784227-39.378189 39.378188-78.756377-78.756377-39.378189 39.378189 275.703019 275.703019 590.728528-590.784227-275.703018-275.703019z m-196.918793 196.918793l39.378189-39.378189 118.162415 118.162415-39.378189 39.378189z m0 157.540603l-78.756377-78.756377 39.378188-39.378189 78.756378 78.756378z" p-id="3285"></path></svg>